<svg width="176" height="42" viewBox="0 0 176 42" fill="none" xmlns="http://www.w3.org/2000/svg">
<path d="M71.5398 20.1832L66.277 20.5071C66.187 20.0573 65.9936 19.6525 65.6967 19.2926C65.3999 18.9238 65.0085 18.6314 64.5227 18.4155C64.0459 18.1906 63.4747 18.0781 62.8089 18.0781C61.9183 18.0781 61.1671 18.267 60.5554 18.6449C59.9437 19.0137 59.6378 19.5085 59.6378 20.1293C59.6378 20.6241 59.8357 21.0424 60.2315 21.3842C60.6274 21.7261 61.3066 22.0005 62.2692 22.2074L66.0206 22.9631C68.0357 23.3769 69.5381 24.0426 70.5277 24.9602C71.5173 25.8778 72.0121 27.0833 72.0121 28.5767C72.0121 29.9351 71.6117 31.1271 70.8111 32.1527C70.0194 33.1783 68.9309 33.9789 67.5455 34.5547C66.169 35.1214 64.5812 35.4048 62.782 35.4048C60.0381 35.4048 57.852 34.8336 56.2237 33.6911C54.6044 32.5395 53.6553 30.9742 53.3764 28.995L59.0305 28.6982C59.2015 29.5348 59.6153 30.1735 60.272 30.6143C60.9287 31.0462 61.7699 31.2621 62.7955 31.2621C63.803 31.2621 64.6127 31.0687 65.2244 30.6818C65.8452 30.286 66.16 29.7777 66.169 29.157C66.16 28.6352 65.9396 28.2079 65.5078 27.875C65.076 27.5331 64.4103 27.2723 63.5107 27.0923L59.9212 26.3771C57.897 25.9723 56.3902 25.2706 55.4006 24.272C54.42 23.2734 53.9297 22.0005 53.9297 20.4531C53.9297 19.1217 54.2895 17.9747 55.0092 17.0121C55.7379 16.0495 56.759 15.3073 58.0724 14.7855C59.3949 14.2637 60.9422 14.0028 62.7145 14.0028C65.3324 14.0028 67.3925 14.5561 68.8949 15.6626C70.4063 16.7692 71.2879 18.276 71.5398 20.1832ZM80.6205 23.017V35H74.8719V7.36364H80.4586V17.9297H80.7015C81.1693 16.7062 81.925 15.7481 82.9685 15.0554C84.0121 14.3537 85.321 14.0028 86.8954 14.0028C88.3348 14.0028 89.5897 14.3177 90.6603 14.9474C91.7398 15.5682 92.5765 16.4633 93.1702 17.6328C93.773 18.7933 94.0698 20.1832 94.0608 21.8026V35H88.3123V22.8281C88.3213 21.5507 87.9974 20.5566 87.3407 19.8459C86.6929 19.1352 85.7843 18.7798 84.6148 18.7798C83.8322 18.7798 83.1394 18.9463 82.5367 19.2791C81.9429 19.612 81.4751 20.0978 81.1333 20.7365C80.8004 21.3662 80.6295 22.1264 80.6205 23.017ZM107.19 35.4048C105.094 35.4048 103.281 34.9595 101.752 34.0689C100.231 33.1693 99.0573 31.9188 98.2296 30.3175C97.402 28.7071 96.9882 26.8404 96.9882 24.7173C96.9882 22.5762 97.402 20.705 98.2296 19.1037C99.0573 17.4934 100.231 16.2429 101.752 15.3523C103.281 14.4527 105.094 14.0028 107.19 14.0028C109.286 14.0028 111.094 14.4527 112.615 15.3523C114.144 16.2429 115.322 17.4934 116.15 19.1037C116.978 20.705 117.392 22.5762 117.392 24.7173C117.392 26.8404 116.978 28.7071 116.15 30.3175C115.322 31.9188 114.144 33.1693 112.615 34.0689C111.094 34.9595 109.286 35.4048 107.19 35.4048ZM107.217 30.9517C108.17 30.9517 108.967 30.6818 109.605 30.142C110.244 29.5933 110.725 28.8466 111.049 27.902C111.382 26.9574 111.549 25.8823 111.549 24.6768C111.549 23.4714 111.382 22.3963 111.049 21.4517C110.725 20.5071 110.244 19.7604 109.605 19.2116C108.967 18.6629 108.17 18.3885 107.217 18.3885C106.254 18.3885 105.445 18.6629 104.788 19.2116C104.14 19.7604 103.65 20.5071 103.317 21.4517C102.993 22.3963 102.831 23.4714 102.831 24.6768C102.831 25.8823 102.993 26.9574 103.317 27.902C103.65 28.8466 104.14 29.5933 104.788 30.142C105.445 30.6818 106.254 30.9517 107.217 30.9517ZM129.735 35.4048C127.638 35.4048 125.826 34.9595 124.296 34.0689C122.776 33.1693 121.602 31.9188 120.774 30.3175C119.947 28.7071 119.533 26.8404 119.533 24.7173C119.533 22.5762 119.947 20.705 120.774 19.1037C121.602 17.4934 122.776 16.2429 124.296 15.3523C125.826 14.4527 127.638 14.0028 129.735 14.0028C131.831 14.0028 133.639 14.4527 135.159 15.3523C136.689 16.2429 137.867 17.4934 138.695 19.1037C139.522 20.705 139.936 22.5762 139.936 24.7173C139.936 26.8404 139.522 28.7071 138.695 30.3175C137.867 31.9188 136.689 33.1693 135.159 34.0689C133.639 34.9595 131.831 35.4048 129.735 35.4048ZM129.762 30.9517C130.715 30.9517 131.511 30.6818 132.15 30.142C132.789 29.5933 133.27 28.8466 133.594 27.902C133.927 26.9574 134.093 25.8823 134.093 24.6768C134.093 23.4714 133.927 22.3963 133.594 21.4517C133.27 20.5071 132.789 19.7604 132.15 19.2116C131.511 18.6629 130.715 18.3885 129.762 18.3885C128.799 18.3885 127.989 18.6629 127.333 19.2116C126.685 19.7604 126.195 20.5071 125.862 21.4517C125.538 22.3963 125.376 23.4714 125.376 24.6768C125.376 25.8823 125.538 26.9574 125.862 27.902C126.195 28.8466 126.685 29.5933 127.333 30.142C127.989 30.6818 128.799 30.9517 129.762 30.9517ZM142.914 35V14.2727H148.393V17.9297H148.636C149.068 16.7152 149.787 15.7571 150.795 15.0554C151.802 14.3537 153.008 14.0028 154.411 14.0028C155.833 14.0028 157.043 14.3582 158.041 15.0689C159.04 15.7706 159.706 16.7242 160.038 17.9297H160.254C160.677 16.7422 161.442 15.7931 162.548 15.0824C163.664 14.3627 164.982 14.0028 166.502 14.0028C168.436 14.0028 170.006 14.6191 171.212 15.8516C172.426 17.075 173.034 18.8113 173.034 21.0604V35H167.298V22.1939C167.298 21.0424 166.993 20.1787 166.381 19.603C165.769 19.0272 165.004 18.7393 164.087 18.7393C163.043 18.7393 162.229 19.0722 161.644 19.7379C161.06 20.3946 160.767 21.2628 160.767 22.3423V35H155.194V22.0724C155.194 21.0559 154.902 20.2462 154.317 19.6435C153.741 19.0407 152.981 18.7393 152.036 18.7393C151.398 18.7393 150.822 18.9013 150.309 19.2251C149.805 19.54 149.405 19.9853 149.108 20.5611C148.811 21.1278 148.663 21.7936 148.663 22.5582V35H142.914Z" fill="#1D1313"/>
<path fill-rule="evenodd" clip-rule="evenodd" d="M21.1546 5.01226C20.9804 5.02808 20.8062 5.04789 20.6322 5.0717C20.7985 5.00414 20.9796 4.98432 21.1546 5.01226ZM26.9552 21.5368L23.6353 15.7866C23.1824 15.0023 22.1796 14.7335 21.3953 15.1863L15.645 18.5063C14.8607 18.9591 14.592 19.962 15.0448 20.7463L18.3647 26.4965C18.8175 27.2808 19.8204 27.5495 20.6047 27.0967L26.355 23.7768C27.1393 23.324 27.408 22.3211 26.9552 21.5368ZM25.2255 1.75028C22.8918 -0.583426 19.1082 -0.583426 16.7745 1.75028L1.75028 16.7745C-0.583426 19.1082 -0.583426 22.8918 1.75028 25.2255L16.7745 40.2497C19.1082 42.5834 22.8918 42.5834 25.2255 40.2497L40.2497 25.2255C42.5834 22.8918 42.5834 19.1082 40.2497 16.7745L25.2255 1.75028Z" fill="#1D1313"/>
<path d="M19 3H25V10H19V3Z" fill="#1D1313"/>
</svg>
